<?xml version="1.0" encoding="UTF-8"?>
<svg width="335px" height="80px" viewBox="0 0 335 80" version="1.1" xmlns="http://www.w3.org/2000/svg" xmlns:xlink="http://www.w3.org/1999/xlink">
    <title>Logo blog</title>
    <g id="Logo" stroke="none" stroke-width="1" fill="none" fill-rule="evenodd">
        <g id="Logo-blog">
            <g id="Group" fill-rule="nonzero">
                <g>
                    <g transform="translate(92.449266, 5.006173)" font-family="AppleSDGothicNeo-Bold, Apple SD Gothic Neo" font-size="61" font-weight="bold" id="Sigma">
                        <g id="Group-2">
                            <text id="S" fill="#000000">
                                <tspan x="0" y="55">S</tspan>
                            </text>
                            <text id="i" fill="#FF4D4D">
                                <tspan x="33.2272803" y="55">i</tspan>
                            </text>
                            <text id="gmie" fill="#000000">
                                <tspan x="49.2788049" y="55">gmie</tspan>
                            </text>
                        </g>
                    </g>
                    <g id="icon-white">
                        <g id="outer" fill="#000000">
                            <path d="M14.3506494,22.7012987 C9.19488679,22.7012987 5,18.5064119 5,13.3519271 C5,8.19488684 9.19488679,4 14.3506494,4 C19.5064119,4 23.7012987,8.19488684 23.7012987,13.3519271 C23.7012987,18.5064119 19.5064119,22.7012987 14.3506494,22.7012987 L14.3506494,22.7012987 Z M14.3506494,8.64465846 C11.7567961,8.64465846 9.64465846,10.7567961 9.64465846,13.3519271 C9.64465846,15.9457804 11.7567961,18.0566402 14.3506494,18.0566402 C16.9457804,18.0566402 19.0566402,15.9457804 19.0566402,13.3519271 C19.0566402,10.7567961 16.9457804,8.64465846 14.3506494,8.64465846 L14.3506494,8.64465846 Z" id="Fill-1"></path>
                            <path d="M0,39.9993579 C0,31.0699436 2.87929623,22.6221245 8.32709936,15.5690046 L13.868653,19.8494213 C9.37761868,25.6645209 7.00303406,32.6328801 7.00303406,39.9993579 C7.00303406,58.1933764 21.8053393,72.9969659 40.0006421,72.9969659 C58.1946608,72.9969659 72.996966,58.1933764 72.996966,39.9993579 C72.996966,21.804055 58.1946608,7.00303405 40.0006421,7.00303405 C33.9607981,7.00303405 28.0558009,8.64687845 22.9226398,11.7586246 L19.2907711,5.77015074 C25.5194003,1.99572986 32.6803975,0 40.0006421,0 C62.0564109,0 80,17.9435892 80,39.9993579 C80,62.0551265 62.0564109,80 40.0006421,80 C17.9435891,80 0,62.0551265 0,39.9993579 Z" id="Fill-5"></path>
                        </g>
                        <g id="inner" transform="translate(16.000000, 17.000000)" fill="#B8C4D1">
                            <path d="M38,22.3682896 C38,18.8559024 40.8551613,16 44.3650582,16 C47.8736714,16 50.7288326,18.8559024 50.7288326,22.3682896 C50.7288326,25.8793923 47.8736714,28.737864 44.3650582,28.737864 C40.8551613,28.737864 38,25.8793923 38,22.3682896 Z M42,22.5 C42,23.8785931 43.121407,25 44.501891,25 C45.8804841,25 47,23.8785931 47,22.5 C47,21.1214069 45.8804841,20 44.501891,20 C43.121407,20 42,21.1214069 42,22.5 Z" id="Fill-2"></path>
                            <path d="M0,23.086726 C0,10.3560643 10.4480942,0 23.2902691,0 C34.2400931,0 43.5793778,7.38226945 46.0011127,17.9537315 L41.3327873,19.0059171 C39.4101484,10.6093199 31.9908689,4.7452784 23.2902691,4.7452784 C13.0884307,4.7452784 4.78816118,12.9734737 4.78816118,23.086726 C4.78816118,33.2012836 13.0884307,41.4294789 23.2902691,41.4294789 C32.1107046,41.4294789 39.7446349,35.2129684 41.4434048,26.6505802 L46.1420185,27.5656943 C44.002095,38.3486378 34.3928507,46.1747573 23.2902691,46.1747573 C10.4480942,46.1747573 0,35.8173876 0,23.086726 Z" id="Fill-3-Copy"></path>
                        </g>
                        <g id="center" transform="translate(33.543707, 33.043093)" fill="#FF4D4D">
                            <path d="M12.3895736,6.92778058 C12.3895736,10.22579 9.71887951,12.8986543 6.42354806,12.8986543 C3.1282165,12.8986543 0.456292878,10.22579 0.456292878,6.92778058 C0.456292878,3.62977112 3.1282165,0.95690681 6.42354806,0.95690681 C9.71887951,0.95690681 12.3895736,3.62977112 12.3895736,6.92778058" id="Fill-4"></path>
                        </g>
                    </g>
                </g>
            </g>
            <text id="Docs" fill="#A3A3A3" font-family="AppleSDGothicNeo-Regular, Apple SD Gothic Neo" font-size="24" font-weight="normal">
                <tspan x="285" y="62">Docs</tspan>
            </text>
        </g>
    </g>
</svg>