<?xml version="1.0" standalone="no"?>
<!DOCTYPE svg PUBLIC "-//W3C//DTD SVG 20010904//EN"
 "http://www.w3.org/TR/2001/REC-SVG-20010904/DTD/svg10.dtd">
<svg version="1.0" xmlns="http://www.w3.org/2000/svg"
 width="400.000000pt" height="400.000000pt" viewBox="0 0 400.000000 400.000000"
 preserveAspectRatio="xMidYMid meet">
<metadata>
Created by potrace 1.14, written by Peter Selinger 2001-2017
</metadata>
<g transform="translate(0.000000,400.000000) scale(0.100000,-0.100000)"
fill="#000000" stroke="none">
<path d="M1848 3995 c-1 -1 -32 -5 -68 -9 -225 -21 -482 -99 -699 -211 l-103
-54 -42 23 c-58 34 -109 47 -197 51 -139 7 -252 -37 -351 -136 -55 -55 -110
-148 -124 -210 -23 -105 -12 -223 30 -311 l25 -51 -47 -81 c-139 -239 -223
-493 -259 -781 -15 -114 -7 -467 12 -535 2 -8 7 -35 10 -59 29 -203 158 -521
296 -731 34 -52 65 -97 69 -100 3 -3 33 -39 67 -80 70 -87 219 -231 301 -293
31 -23 65 -49 75 -58 31 -28 223 -139 320 -184 164 -77 359 -135 534 -161 26
-3 57 -9 68 -11 39 -9 381 -11 450 -2 754 93 1376 571 1648 1265 35 88 80 238
91 299 3 17 10 53 15 82 32 167 36 545 6 653 -2 8 -6 33 -10 55 -21 145 -88
343 -174 520 -202 410 -542 740 -965 935 -163 76 -326 122 -576 165 -36 7
-396 16 -402 10z m372 -358 c14 -3 41 -8 60 -11 19 -3 78 -16 130 -30 563
-143 1011 -579 1175 -1142 81 -277 82 -621 4 -894 -7 -25 -13 -47 -14 -50 -21
-91 -124 -307 -197 -415 -202 -299 -470 -513 -798 -638 -92 -35 -220 -71 -291
-82 -129 -20 -182 -23 -324 -20 -88 2 -171 6 -185 8 -14 3 -38 8 -55 10 -16 3
-68 14 -115 25 -288 69 -566 226 -775 437 -77 78 -89 92 -156 180 -389 514
-436 1232 -117 1793 36 61 45 71 62 66 33 -11 157 -7 206 5 160 41 296 174
337 328 8 32 16 96 17 143 l1 84 70 37 c146 76 337 136 520 163 86 13 387 15
445 3z m-1405 -93 c91 -43 142 -133 132 -236 -10 -114 -94 -196 -210 -205 -58
-5 -73 -2 -121 21 -88 43 -136 124 -131 221 8 163 183 269 330 199z"/>
<path d="M1805 3139 c-22 -4 -56 -10 -76 -13 -104 -16 -373 -129 -419 -176 -3
-3 -30 -24 -60 -46 -62 -47 -150 -132 -189 -184 -14 -19 -29 -37 -32 -40 -15
-12 -86 -130 -117 -194 -36 -74 -77 -192 -86 -247 -3 -19 -8 -45 -12 -59 -13
-53 -12 -300 3 -377 43 -237 148 -438 317 -611 174 -179 431 -309 666 -339 71
-10 249 -10 320 -1 376 48 726 301 891 642 26 54 56 128 66 163 17 60 20 64
63 80 65 25 153 117 175 183 43 129 13 255 -82 345 -32 30 -114 75 -138 75 -8
0 -20 10 -25 23 -72 175 -102 230 -179 332 -186 245 -462 402 -780 445 -86 12
-236 11 -306 -1z m350 -244 c68 -14 184 -59 254 -96 177 -95 312 -240 398
-426 l34 -74 -40 -37 c-22 -20 -52 -62 -68 -92 -24 -48 -28 -66 -28 -140 1
-71 5 -93 27 -135 24 -46 102 -135 119 -135 9 0 -13 -72 -45 -143 -82 -186
-262 -365 -455 -453 -119 -55 -217 -76 -366 -79 -119 -3 -154 0 -230 19 -320
80 -561 297 -665 598 -81 235 -59 503 58 720 42 78 44 82 107 158 135 161 344
283 547 319 56 10 302 7 353 -4z m926 -760 c37 -20 69 -70 69 -110 0 -62 -63
-125 -125 -125 -61 0 -125 63 -125 123 0 63 62 127 123 127 15 0 41 -7 58 -15z"/>
<path d="M1893 2280 c-64 -26 -137 -95 -166 -158 -31 -68 -30 -180 1 -244 53
-108 151 -171 267 -171 270 -1 401 317 209 509 -76 75 -211 103 -311 64z"/>
</g>
</svg>
