<svg width="50" height="50" viewBox="0 0 50 50" fill="none" xmlns="http://www.w3.org/2000/svg">
<g clip-path="url(#clip0_1_16)">
<path d="M25 0C20.5 0 16.09 1.21 12.24 3.5C11.31 2.87 10.18 2.5 8.97 2.5C5.75 2.5 3.13 5.12 3.13 8.34C3.13 9.47 3.46 10.52 4.01 11.41C1.38 15.46 0 20.11 0 25C0 38.78 11.21 50 25 50C38.79 50 50 38.78 50 25C50 11.22 38.79 0 25 0ZM8.97 5.4C10.59 5.4 11.91 6.72 11.91 8.34C11.91 9.96 10.59 11.28 8.97 11.28C7.35 11.28 6.03 9.96 6.03 8.34C6.03 6.72 7.35 5.4 8.97 5.4ZM25 45.62C13.63 45.62 4.38 36.37 4.38 25C4.38 21.05 5.48 17.29 7.56 14.01C8.01 14.12 8.49 14.19 8.97 14.19C12.19 14.19 14.81 11.57 14.81 8.35C14.81 7.94 14.77 7.54 14.69 7.15C17.81 5.34 21.37 4.38 25 4.38C36.37 4.38 45.62 13.63 45.62 25C45.62 36.37 36.37 45.62 25 45.62Z" fill="white"/>
<path d="M41.71 24.61C41.71 22.66 40.3 21.04 38.44 20.7C36.55 14.71 31 10.63 24.56 10.63C16.53 10.63 10 17.1 10 25.06C10 33.02 16.53 39.49 24.56 39.49C31.29 39.49 37.13 34.88 38.69 28.46C40.42 28.03 41.7 26.47 41.7 24.61H41.71ZM24.56 36.52C18.18 36.52 13 31.38 13 25.06C13 18.74 18.19 13.6 24.56 13.6C29.58 13.6 33.91 16.72 35.49 21.33C34.44 22.05 33.75 23.25 33.75 24.61C33.75 26.07 34.55 27.33 35.72 28.03C34.38 32.99 29.81 36.53 24.56 36.53V36.52ZM37.81 26.25C36.95 26.25 36.25 25.55 36.25 24.69C36.25 23.83 36.95 23.13 37.81 23.13C38.67 23.13 39.37 23.83 39.37 24.69C39.37 25.55 38.67 26.25 37.81 26.25Z" fill="white"/>
<path fill-rule="evenodd" clip-rule="evenodd" d="M28.71 24.98C28.71 27.04 27.04 28.71 24.98 28.71C22.92 28.71 21.25 27.04 21.25 24.98C21.25 22.92 22.92 21.25 24.98 21.25C27.04 21.25 28.71 22.92 28.71 24.98Z" fill="white"/>
</g>
<defs>
<clipPath id="clip0_1_16">
<rect width="50" height="50" fill="white"/>
</clipPath>
</defs>
</svg>
