<svg width="162" height="50" viewBox="0 0 162 50" fill="none" xmlns="http://www.w3.org/2000/svg">
<g clip-path="url(#clip0_1_2)">
<path d="M25 0C20.5 0 16.09 1.21 12.24 3.5C11.31 2.87 10.18 2.5 8.97 2.5C5.75 2.5 3.13 5.12 3.13 8.34C3.13 9.47 3.46 10.52 4.01 11.41C1.38 15.46 0 20.11 0 25C0 38.78 11.21 50 25 50C38.79 50 50 38.78 50 25C50 11.22 38.79 0 25 0ZM8.97 5.4C10.59 5.4 11.91 6.72 11.91 8.34C11.91 9.96 10.59 11.28 8.97 11.28C7.35 11.28 6.03 9.96 6.03 8.34C6.03 6.72 7.35 5.4 8.97 5.4ZM25 45.62C13.63 45.62 4.38 36.37 4.38 25C4.38 21.05 5.48 17.29 7.56 14.01C8.01 14.12 8.49 14.19 8.97 14.19C12.19 14.19 14.81 11.57 14.81 8.35C14.81 7.94 14.77 7.54 14.69 7.15C17.81 5.34 21.37 4.38 25 4.38C36.37 4.38 45.62 13.63 45.62 25C45.62 36.37 36.37 45.62 25 45.62Z" fill="white"/>
<path d="M41.71 24.61C41.71 22.66 40.3 21.04 38.44 20.7C36.55 14.71 31 10.63 24.56 10.63C16.53 10.63 10 17.1 10 25.06C10 33.02 16.53 39.49 24.56 39.49C31.29 39.49 37.13 34.88 38.69 28.46C40.42 28.03 41.7 26.47 41.7 24.61H41.71ZM24.56 36.52C18.18 36.52 13 31.38 13 25.06C13 18.74 18.19 13.6 24.56 13.6C29.58 13.6 33.91 16.72 35.49 21.33C34.44 22.05 33.75 23.25 33.75 24.61C33.75 26.07 34.55 27.33 35.72 28.03C34.38 32.99 29.81 36.53 24.56 36.53V36.52ZM37.81 26.25C36.95 26.25 36.25 25.55 36.25 24.69C36.25 23.83 36.95 23.13 37.81 23.13C38.67 23.13 39.37 23.83 39.37 24.69C39.37 25.55 38.67 26.25 37.81 26.25Z" fill="white"/>
<path fill-rule="evenodd" clip-rule="evenodd" d="M28.71 24.98C28.71 27.04 27.04 28.71 24.98 28.71C22.92 28.71 21.25 27.04 21.25 24.98C21.25 22.92 22.92 21.25 24.98 21.25C27.04 21.25 28.71 22.92 28.71 24.98Z" fill="white"/>
<path d="M61.13 31.57C60.96 31.33 60.96 31.09 61.2 30.82L62.63 29.19C62.9 28.88 63.17 28.92 63.41 29.16C64.8 30.76 66.27 31.71 68.51 31.71C70.99 31.71 72.52 30.52 72.52 28.45C72.52 26.38 71.02 25.59 69.02 24.64L66.13 23.28C63.61 22.09 61.61 20.29 61.61 17.09C61.61 13.08 64.74 10.73 68.61 10.73C71.4 10.73 73.57 11.85 75.31 13.82C75.58 14.09 75.55 14.33 75.31 14.6L73.92 16.27C73.68 16.58 73.41 16.58 73.14 16.34C71.75 14.95 70.45 14.23 68.75 14.23C66.74 14.23 65.32 15.25 65.32 17.09C65.32 18.65 66.27 19.44 68.24 20.39L70.86 21.61C73.55 22.9 76.23 24.53 76.23 28.44C76.23 32.89 72.69 35.21 68.55 35.21C64.98 35.21 62.5 33.51 61.14 31.57H61.13Z" fill="white"/>
<path d="M79.93 12.43C79.93 11.27 80.85 10.32 82.07 10.32C83.29 10.32 84.18 11.27 84.18 12.43C84.18 13.59 83.26 14.57 82.07 14.57C80.88 14.57 79.93 13.62 79.93 12.43ZM80.2 18.65C80.2 18.34 80.37 18.14 80.68 18.14H83.43C83.74 18.14 83.91 18.34 83.91 18.65V34.29C83.91 34.6 83.74 34.8 83.43 34.8H80.68C80.37 34.8 80.2 34.6 80.2 34.29V18.65Z" fill="white"/>
<path d="M89.93 40C89.62 39.8 89.56 39.46 89.69 39.15L90.47 37.69C90.64 37.42 90.91 37.32 91.22 37.49C92.65 38.34 94.25 38.75 95.81 38.75C98.56 38.75 101.25 37.53 101.25 33.92V31.68C100.13 33.45 98.22 34.54 95.57 34.54C90.84 34.54 87.61 31.07 87.61 26.14C87.61 21.21 90.84 17.74 95.53 17.74C98.25 17.74 100.15 18.83 101.28 20.66L101.35 18.65C101.35 18.34 101.52 18.14 101.83 18.14H104.31C104.62 18.14 104.79 18.34 104.79 18.65V34.02C104.79 39.73 100.34 41.77 96.12 41.77C93.67 41.77 91.43 41.09 89.93 40ZM96.22 31.2C99.11 31.2 101.15 29.26 101.15 26.17C101.15 23.08 99.11 21.07 96.22 21.07C93.33 21.07 91.19 23.04 91.19 26.14C91.19 29.24 93.37 31.21 96.22 31.21V31.2Z" fill="white"/>
<path d="M109.34 34.29V18.65C109.34 18.34 109.51 18.14 109.82 18.14H112.4C112.71 18.14 112.88 18.28 112.88 18.68L112.98 20.48C113.83 18.92 115.33 17.73 117.67 17.73C119.88 17.73 121.58 18.78 122.46 20.82C123.38 19.09 124.98 17.73 127.66 17.73C131.16 17.73 133.3 20.08 133.3 24.46V34.29C133.3 34.6 133.13 34.8 132.82 34.8H130.1C129.79 34.8 129.62 34.6 129.62 34.29V25.14C129.62 22.56 128.63 21.13 126.53 21.13C124.43 21.13 123.13 22.59 123.13 25.14V34.29C123.13 34.6 122.96 34.8 122.65 34.8H119.96C119.62 34.8 119.45 34.6 119.45 34.29V25.14C119.45 22.56 118.36 21.13 116.29 21.13C114.22 21.13 112.99 22.59 112.99 25.14V34.29C112.99 34.6 112.82 34.8 112.51 34.8H109.79C109.48 34.8 109.31 34.6 109.31 34.29H109.34Z" fill="white"/>
<path d="M137.56 12.43C137.56 11.27 138.48 10.32 139.7 10.32C140.92 10.32 141.81 11.27 141.81 12.43C141.81 13.59 140.89 14.57 139.7 14.57C138.51 14.57 137.56 13.62 137.56 12.43ZM137.83 18.65C137.83 18.34 138 18.14 138.31 18.14H141.06C141.37 18.14 141.54 18.34 141.54 18.65V34.29C141.54 34.6 141.37 34.8 141.06 34.8H138.31C138 34.8 137.83 34.6 137.83 34.29V18.65Z" fill="white"/>
<path d="M145.25 26.4C145.25 21.5 148.65 17.73 153.71 17.73C158.77 17.73 161.6 21.5 161.6 25.65C161.6 27.11 161.29 27.83 160.04 27.83H148.82C149.26 30.48 151.23 32.25 154.53 32.25C156.16 32.25 157.49 31.84 158.81 30.96C159.01 30.82 159.22 30.86 159.35 31.06L160.3 32.35C160.5 32.62 160.44 32.83 160.16 33.1C158.7 34.53 156.56 35.21 154.21 35.21C148.77 35.21 145.23 31.37 145.23 26.4H145.25ZM158.33 25.18C158.13 22.46 156.32 20.83 153.71 20.83C151.1 20.83 149.16 22.43 148.78 25.18H158.33Z" fill="white"/>
</g>
<defs>
<clipPath id="clip0_1_2">
<rect width="161.6" height="50" fill="white"/>
</clipPath>
</defs>
</svg>
